<svg width="10" height="17" xmlns="http://www.w3.org/2000/svg" xmlns:xlink="http://www.w3.org/1999/xlink" xmlns:svgjs="http://svgjs.com/svgjs" fill="#3d4677"><svg xmlns="http://www.w3.org/2000/svg" width="10" height="17"><path paint-order="stroke fill markers" fill-rule="evenodd" d="M10.66 1.998l-2.158-.003c-2.425 0-3.992 1.547-3.992 3.94V7.75H2.34a.333.333 0 0 0-.34.327v2.629c0 .18.152.328.34.328h2.17v6.636c0 .18.151.326.339.326h2.832c.188 0 .34-.146.34-.326v-6.636h2.537c.187 0 .34-.148.34-.328v-2.63a.327.327 0 0 0-.099-.232.35.35 0 0 0-.24-.094H8.02V6.21c0-.74.184-1.115 1.186-1.115l1.454-.001c.188 0 .34-.146.34-.326V2.326a.333.333 0 0 0-.34-.328z"/></svg></svg>