<svg width="17" height="17" xmlns="http://www.w3.org/2000/svg" xmlns:xlink="http://www.w3.org/1999/xlink" xmlns:svgjs="http://svgjs.com/svgjs" fill="#3d4677"><svg xmlns="http://www.w3.org/2000/svg" width="17" height="17"><path paint-order="stroke fill markers" fill-rule="evenodd" d="M16.928 6.08a8.053 8.053 0 0 0-2.912-2.986 7.694 7.694 0 0 0-4.017-1.099c-1.451 0-2.79.367-4.015 1.1A8.048 8.048 0 0 0 3.072 6.08c-.716 1.255-1.074 2.627-1.074 4.116 0 1.787.51 3.394 1.527 4.82 1.017 1.43 2.332 2.416 3.943 2.965.187.035.326.01.416-.075a.423.423 0 0 0 .136-.32l-.005-.578c-.004-.362-.006-.679-.006-.95l-.24.043c-.152.03-.345.04-.577.037a4.113 4.113 0 0 1-.724-.074 1.588 1.588 0 0 1-.698-.321 1.348 1.348 0 0 1-.459-.657l-.104-.245a2.693 2.693 0 0 0-.328-.544c-.15-.199-.3-.335-.453-.406l-.073-.055a.667.667 0 0 1-.136-.127.564.564 0 0 1-.094-.15c-.02-.049-.003-.088.053-.122.055-.033.156-.049.302-.049l.208.032c.14.03.31.114.516.258.205.143.373.328.505.554.16.292.353.514.579.668.225.153.452.23.682.23.23 0 .427-.018.594-.054.166-.036.322-.089.468-.162.063-.475.233-.84.51-1.099a6.955 6.955 0 0 1-1.067-.191 4.332 4.332 0 0 1-.98-.416 2.855 2.855 0 0 1-.838-.716c-.222-.285-.405-.658-.547-1.124-.142-.462-.213-.995-.213-1.6 0-.862.274-1.594.823-2.2-.257-.65-.233-1.374.072-2.18.202-.062.5-.015.896.145.397.162.686.298.87.412.184.115.332.209.443.288a7.257 7.257 0 0 1 2-.278c.688 0 1.355.094 2.001.278l.396-.254c.27-.173.59-.33.958-.473.368-.14.65-.18.845-.118.312.806.34 1.533.082 2.18.55.606.824 1.338.824 2.2a5.53 5.53 0 0 1-.214 1.608c-.142.465-.326.84-.552 1.122a2.995 2.995 0 0 1-.844.71c-.337.19-.663.33-.98.416a6.8 6.8 0 0 1-1.067.191c.361.32.541.827.541 1.517v2.254c0 .128.044.234.131.32.087.085.224.11.411.075 1.612-.549 2.926-1.535 3.944-2.965C17.492 13.591 18 11.984 18 10.196c0-1.488-.358-2.86-1.073-4.115z"/></svg></svg>