<svg width="18" height="17" xmlns="http://www.w3.org/2000/svg" xmlns:xlink="http://www.w3.org/1999/xlink" xmlns:svgjs="http://svgjs.com/svgjs" fill="#3d4677"><svg xmlns="http://www.w3.org/2000/svg" width="18" height="17"><path paint-order="stroke fill markers" fill-rule="evenodd" d="M19 11.806v6.19h-3.644V12.22c0-1.452-.527-2.44-1.846-2.44-1.007 0-1.606.667-1.87 1.314-.095.23-.12.55-.12.872v6.03H7.875s.049-9.783 0-10.797h3.645v1.532c-.008.01-.018.022-.025.034h.025v-.034c.484-.735 1.348-1.785 3.284-1.785 2.398 0 4.196 1.543 4.196 4.86zM4.062 1.996C2.815 1.995 2 2.8 2 3.86c0 1.036.792 1.866 2.014 1.866h.024c1.271 0 2.062-.83 2.062-1.866-.024-1.06-.79-1.866-2.038-1.866zm-1.846 16H5.86V7.199H2.216v10.797z"/></svg></svg>