<svg width="20" height="17" xmlns="http://www.w3.org/2000/svg" xmlns:xlink="http://www.w3.org/1999/xlink" xmlns:svgjs="http://svgjs.com/svgjs" fill="#3d4677"><svg xmlns="http://www.w3.org/2000/svg" width="20" height="17"><path paint-order="stroke fill markers" fill-rule="evenodd" d="M20.475 2.29A7.669 7.669 0 0 1 18 3.272a3.823 3.823 0 0 0-2.844-1.276c-2.154 0-3.899 1.81-3.899 4.04 0 .316.035.624.1.919-3.238-.168-6.11-1.776-8.033-4.22a4.125 4.125 0 0 0-.527 2.031c0 1.402.69 2.638 1.734 3.36a3.774 3.774 0 0 1-1.766-.505v.05c0 1.957 1.344 3.59 3.126 3.963a3.763 3.763 0 0 1-1.76.07c.496 1.603 1.935 2.77 3.64 2.803A7.642 7.642 0 0 1 2 16.18a10.742 10.742 0 0 0 5.975 1.816c7.17 0 11.09-6.158 11.09-11.496l-.013-.523A7.968 7.968 0 0 0 21 3.888c-.7.322-1.45.54-2.238.636a4.037 4.037 0 0 0 1.713-2.233z"/></svg></svg>